<svg xmlns="http://www.w3.org/2000/svg" viewBox="0 0 1500 1500"><g style="isolation:isolate"><path fill="#eae7dd" stroke="#000" stroke-miterlimit="10" stroke-width="3" d="M389 754h-63V351h63zM302 754h-62V151h62z"/><path fill="#fbf8ed" stroke="#000" stroke-miterlimit="10" stroke-width="3" d="M216 754h-63V277h63zM129 754H67V53h62z"/><path fill="none" stroke="#000" stroke-miterlimit="10" stroke-width="3" d="M1428 829v599M1355 829v599M1282 829v599M1209 829v599M1136 829v599M1466 1351h-367M1466 1239h-367M1466 1128h-367M1466 1017h-367M1466 906h-367"/><path d="M973 170a36 36 0 0015 23q12 9 33 9a95 95 0 0017-2 45 45 0 0013-4 24 24 0 009-8 21 21 0 003-12q0-11-8-16t-23-5l-34-2a117 117 0 01-23-4 52 52 0 01-18-8 39 39 0 01-12-15q-4-9-4-23t5-25a53 53 0 0116-18 70 70 0 0124-12 115 115 0 0130-3q37 0 56 16t24 46h-32a37 37 0 00-4-11 31 31 0 00-9-10 46 46 0 00-14-7 74 74 0 00-21-2q-21 0-33 6t-11 20q0 10 8 15t26 5l35 3a96 96 0 0122 4 48 48 0 0117 9 38 38 0 0111 15q3 9 3 23a53 53 0 01-5 24 52 52 0 01-15 18 69 69 0 01-23 11 107 107 0 01-30 4q-36 0-57-16t-23-48zM1263 47v32h-106v43h102v32h-102v45h106v32h-138V47zM1371 234a99 99 0 01-33-6 72 72 0 01-28-17q-12-12-18-31t-7-44q0-26 6-43t17-28a66 66 0 0128-16 138 138 0 0171 0 66 66 0 0127 16q12 10 18 28t6 43q0 26-7 44t-18 31a72 72 0 01-28 17 99 99 0 01-34 6zm0-32q26 0 41-17t15-49q0-31-14-45t-42-14q-27 0-41 14t-14 45q0 33 15 49t40 17z" fill="#eae7dd" stroke="#000" stroke-miterlimit="10" stroke-width="3"/><path d="M1467 774V294h-151C996 294 856 43 565 43c-154 0-244 75-244 202 0 220 504 495 504 799 0 46-12 104-90 104-172 0-177-527-578-527H45v526h59c199 0 180 305 626 305 250 0 457-167 457-409 0-498-699-562-699-792 0-37 26-63 70-63 191 0 296 586 758 586z" fill="#f2d451"/><path d="M730 1417c115 0 221-37 300-105a355 355 0 00122-269c0-66-12-125-38-181-23-49-56-95-100-139-84-84-195-148-292-204-145-83-269-154-269-268 0-58 43-98 105-98 58 0 103 39 131 69 36 38 71 90 109 145 57 83 122 178 206 250 94 82 196 122 312 122h116V329h-116c-77 0-152-15-228-44-66-25-126-58-183-91C798 134 698 78 565 78c-67 0-122 15-157 45-35 29-52 70-52 122 0 38 20 84 61 139 39 55 94 112 151 172 69 73 140 149 195 229 65 94 97 179 97 259 0 37-7 65-21 88-27 42-72 51-104 51-43 0-80-22-115-68-27-35-51-83-77-133-37-74-80-158-140-221-32-34-66-58-104-76-43-19-89-29-142-29H80v456h24c95 0 148 58 204 119 40 44 81 89 145 125 73 41 164 61 277 61z" fill="none" stroke="#fbf8ed" stroke-miterlimit="10" stroke-width="3"/><path fill="#fff" stroke="#000" stroke-miterlimit="10" stroke-width="3" d="M47 1453h1404M1246 420h36c67 0 111 70 82 130l-135 288a196 196 0 01-175 114H726c-7 0-13 1-17 6l-260 341a54 54 0 00-11 39l2 15a47 47 0 01-6 29l-16 28h12l-29 43H284l10-15-126 15H42l17-44 13-1v-2a46 46 0 0135-44l162-40a97 97 0 0062-48l238-439c29-42 76-64 127-64h300l139-282a124 124 0 01111-69zM1170 255l-26 83a5 5 0 005 7h27"/><circle cx="1299.1" cy="287.3" r="132.7" fill="#fff" stroke="#000" stroke-miterlimit="10" stroke-width="3"/><ellipse cx="1209.3" cy="261.5" rx="19.4" ry="29.3" transform="rotate(-27 1209 262)" fill="#fff" stroke="#000" stroke-miterlimit="10" stroke-width="3"/><path d="M1192 270c7 15 21 22 31 18l-27-52c-10 4-11 20-4 34z" stroke="#000" stroke-miterlimit="10" stroke-width="3"/><path d="M1175 323l7-5c6-3 5-17-2-32s-19-23-25-20l-7 5" fill="#fff" stroke="#000" stroke-miterlimit="10" stroke-width="3"/><ellipse cx="1161.4" cy="296.6" rx="12.7" ry="29.3" transform="rotate(-27 1161 297)" fill="#fff" stroke="#000" stroke-miterlimit="10" stroke-width="3"/><path d="M412 436v296h310a23 23 0 01-23 23H402v0h-14V457c0-14 13-21 24-21z" stroke="#000" stroke-miterlimit="10" stroke-width="3"/><path fill="#fff" stroke="#000" stroke-miterlimit="10" stroke-width="3" d="M1231 1452h-55l-185-435h86l154 435zM666 1452h56l185-435h-86l-155 435zM930 1452h41l20-435h-81l20 435z"/><path d="M1352 608h0a22 22 0 0120 31l-124 276a184 184 0 01-168 109H753a14 14 0 01-11-21l8-14c16-23 20-38 48-38h322a86 86 0 0078-49l133-282a22 22 0 0121-12z" fill="#eae7dd" stroke="#000" stroke-miterlimit="10" stroke-width="3"/><path fill="none" stroke="#000" stroke-miterlimit="10" stroke-width="3" d="M992 772h204"/><path d="M689 591h-68a72 72 0 00-46 17l-96 82a24 24 0 00-5 24h0c4 13 15 17 32 17l183-1zM1223 331s3 30-30 36M1225 423s45-9 66 27 6 68-7 80M1263 282a19 19 0 10-33 19" fill="#fff" stroke="#000" stroke-miterlimit="10" stroke-width="3"/><path fill="none" stroke="#000" stroke-miterlimit="10" stroke-width="3" d="M69 1408h323M440 1314h-23c-22 0-25 14-58 14-24 0-18-23-52-23"/><path d="M1152 805h-87a92 92 0 00-83 53l-2 4M974 387v-20c-46 0-60-69-74-135-6-33-12-63-22-86-12-29-29-44-51-44s-39 12-51 34c-10 18-16 42-21 65-6 23-11 46-20 62-9 17-20 24-36 24-36 0-53-23-74-50-22-29-48-63-103-63-51 0-89 24-122 46-27 18-51 33-78 33-28 0-60-17-86-44-28-29-43-64-43-97h-20c0 38 17 78 48 110 30 32 68 51 101 51s60-18 89-36c33-21 66-43 111-43s66 27 88 55c21 29 43 58 89 58 50 0 63-54 75-101 5-22 11-44 19-60 9-17 19-24 34-24 8 0 21 4 32 31 9 22 15 51 22 83 7 35 14 71 27 100 16 34 37 51 66 51z" fill="#fff" stroke="#000" stroke-miterlimit="10" stroke-width="3"/><circle cx="974.1" cy="377.3" r="38.7" fill="#fff" stroke="#000" stroke-miterlimit="10" stroke-width="3"/><circle cx="974.1" cy="377.3" r="25.1" fill="#fff" stroke="#000" stroke-miterlimit="10" stroke-width="3"/><circle cx="827.1" cy="112.3" r="38.7" fill="#fff" stroke="#000" stroke-miterlimit="10" stroke-width="3"/><circle cx="827.1" cy="112.3" r="25.1" fill="#fff" stroke="#000" stroke-miterlimit="10" stroke-width="3"/><circle cx="699" cy="296.9" r="38.7" fill="#fff" stroke="#000" stroke-miterlimit="10" stroke-width="3"/><circle cx="699" cy="296.9" r="25.1" fill="#fff" stroke="#000" stroke-miterlimit="10" stroke-width="3"/><circle cx="522" cy="183.9" r="38.7" fill="#fff" stroke="#000" stroke-miterlimit="10" stroke-width="3"/><circle cx="522" cy="183.9" r="25.1" fill="#fff" stroke="#000" stroke-miterlimit="10" stroke-width="3"/><circle cx="322.3" cy="263" r="38.7" fill="#fff" stroke="#000" stroke-miterlimit="10" stroke-width="3"/><circle cx="322.3" cy="263" r="25.1" fill="#fff" stroke="#000" stroke-miterlimit="10" stroke-width="3"/><circle cx="182.9" cy="112.3" r="38.7" fill="#fff" stroke="#000" stroke-miterlimit="10" stroke-width="3"/><circle cx="182.9" cy="112.3" r="25.1" fill="#fff" stroke="#000" stroke-miterlimit="10" stroke-width="3"/><path d="M185 1343l21 31s51-3 51 36M439 1329s-67 5-84 79" fill="none" stroke="#000" stroke-miterlimit="10" stroke-width="3"/><rect x="272.9" y="1306.8" width="9.3" height="32.5" rx="4.6" transform="rotate(160 278 1323)" stroke="#000" stroke-miterlimit="10" stroke-width="3"/><rect x="249.3" y="1313.1" width="9.3" height="32.5" rx="4.6" transform="rotate(160 254 1329)" stroke="#000" stroke-miterlimit="10" stroke-width="3"/><rect x="224" y="1320.4" width="9.3" height="32.5" rx="4.6" transform="rotate(160 229 1337)" stroke="#000" stroke-miterlimit="10" stroke-width="3"/><path d="M801 951c-7 0-13 2-17 7l-259 341a54 54 0 00-11 39l2 15a47 47 0 01-6 29l-16 28h12l-29 43H359l11-15-126 15H118l17-44 13-1v-2a46 46 0 0134-44l163-40a97 97 0 0061-48l239-439c28-42 76-64 126-64" fill="#fff" stroke="#000" stroke-miterlimit="10" stroke-width="3"/><path fill="none" stroke="#000" stroke-miterlimit="10" stroke-width="3" d="M145 1408h323M515 1314h-22c-23 0-26 14-59 14-24 0-18-23-52-23M260 1343l22 31s51-3 51 36M514 1329s-66 5-84 79"/><rect x="348.3" y="1306.8" width="9.3" height="32.5" rx="4.6" transform="rotate(160 353 1323)" stroke="#000" stroke-miterlimit="10" stroke-width="3"/><rect x="324.8" y="1313.1" width="9.3" height="32.5" rx="4.6" transform="rotate(160 329 1329)" stroke="#000" stroke-miterlimit="10" stroke-width="3"/><rect x="299.5" y="1320.4" width="9.3" height="32.5" rx="4.6" transform="rotate(160 304 1337)" stroke="#000" stroke-miterlimit="10" stroke-width="3"/><path d="M1433 282c0-70-29-97-56-114-23-14-58-16-77-21-42-12-72-38-99-23-24 13-6 43-6 43s-14-4-26-2c-17 2-26 12-26 25 0 18 13 27 31 27 27 0 35-16 64-16 36 0 63 57 63 57s-2-26 14-26 28 22 28 43-11 25-11 60 31 37 46 37h25s30-38 30-90z" fill="#fbf8ed" stroke="#000" stroke-miterlimit="10" stroke-width="3"/><path d="M1340 293c-5 12-23 17-28 1" fill="none" stroke="#000" stroke-miterlimit="10" stroke-width="3"/><path d="M1310 261s-2-14 7-15c7-1 11 8 13 17s1 25-6 27M425 1283l158 1 194-317" fill="#fff" stroke="#000" stroke-miterlimit="10" stroke-width="3"/><path d="M1073 862H780a70 70 0 00-61 37l-173 319M406 1276h-75" fill="none" stroke="#000" stroke-miterlimit="10" stroke-width="3"/><path stroke="#000" stroke-miterlimit="10" stroke-width="3" d="M1253 988l13-52 31 43-14 3 36 227 74-70 34 211h-14l-29-183-74 70-41-252-16 3z"/><path d="M276 1197c4 1 8 1 12-1 21-6 44-57 44-57s22-11 28-16c8-7 17-24 14-39s-30-35-30-35 12-7 1-25-25-37-25-37 25 11 34 0a337 337 0 0026-38c7-11 17-4 21-13s9-41 9-41 17-5 17-28-20-41-20-41 1-56-21-65c-14-5-33 6-33 6s-2-9-5-10l-16-1s1-10-9-14-32 3-36 14 0 22 0 22-23 11-29 28 11 24 11 24a29 29 0 00-13 17c-3 12 1 12 1 12s-10 15-13 23 2 29-1 33 0 21 0 21l-16 6-37-19-17 8-48-16c-6-3-29 2-45 5" fill="none" stroke="#000" stroke-miterlimit="10" stroke-width="3"/><path fill="#fff" stroke="#000" stroke-miterlimit="10" stroke-width="3" d="M924 772H46v-17h878z"/><ellipse cx="318.7" cy="878.4" rx="19.3" ry="13.9" transform="rotate(-71 319 878)" fill="none" stroke="#000" stroke-miterlimit="10" stroke-width="3"/><path d="M306 874c-4 10-1 20 6 23l13-37c-7-2-16 4-19 14z" stroke="#000" stroke-miterlimit="10" stroke-width="3"/><ellipse cx="273.2" cy="862.2" rx="19.3" ry="13.9" transform="rotate(-71 273 862)" fill="none" stroke="#000" stroke-miterlimit="10" stroke-width="3"/><path d="M260 858c-3 10 0 20 7 22l13-36c-8-3-16 4-20 14z" stroke="#000" stroke-miterlimit="10" stroke-width="3"/><path d="M330 1049s-80-15-100-76c-8-24-3-31-3-31M312 1066s-83 28-155 4c-51-16-77-53-77-53" fill="none" stroke="#000" stroke-miterlimit="10" stroke-width="3"/><path d="M285 1053s-117-10-138-64c-13-36 18-53 18-53" fill="none" stroke="#000" stroke-miterlimit="10" stroke-width="3"/><path d="M1282 420c46 0 121 47 82 130l-106 223H980s121-234 156-276 40-77 146-77z" fill="#fbf8ed" stroke="#000" stroke-miterlimit="10" stroke-width="3"/><path d="M1242 424a137 137 0 00-96 38L964 577H689v116h273a164 164 0 00108-40l122-106" fill="#fbf8ed" stroke="#000" stroke-miterlimit="10" stroke-width="3"/><path d="M1281 418c-52-4-98 15-123 39L989 616H714v116h273a164 164 0 00108-40l122-106" fill="#fbf8ed" stroke="#000" stroke-miterlimit="10" stroke-width="3"/><path fill="none" stroke="#000" stroke-miterlimit="10" stroke-width="3" d="M991 616l44 29M1008 672l-17-56M972 662l17-46M763 616v76a38 38 0 01-11 27h0a38 38 0 01-27 12h-11"/><path fill="#fff" stroke="#000" stroke-miterlimit="10" stroke-width="3" d="M739 577v39"/><circle cx="735.5" cy="700.6" r="9.6" fill="none" stroke="#000" stroke-miterlimit="10" stroke-width="3"/><path d="M714 631h-53a136 136 0 00-60 14l-82 41a24 24 0 00-13 21h0a24 24 0 0023 23h185v-99z" fill="#fff" stroke="#000" stroke-miterlimit="10" stroke-width="3"/><path fill="none" stroke="#000" stroke-miterlimit="10" stroke-width="3" d="M621 669l-115 39M616 699l-100 26M283 824s11 7 30 7 33-9 36 24 16 47 16 47 8 28-6 40-48 9-38 31M292 868l-30 22a5 5 0 000 8l7 8M216 426h-61M216 333h-61M300 388h-61M303 456h-62M389 531h-61M390 499h-61M390 415h-61M130 122H69M130 375H69M283 923s-20-4-28-13M275 963s-19-3-27-13"/><path fill="#fff" stroke="#000" stroke-miterlimit="10" stroke-width="3" d="M1180 285l151-87"/><path d="M1225 423c50-2 77 33 72 84M1028 275v240M660 99v73M649 493l-65 54M837 1220l72 126" fill="none" stroke="#000" stroke-miterlimit="10" stroke-width="3"/><path d="M382 1303c31 0 28 26 53 26 32 0 41-15 57-15l25 1-4 20s7 27-1 43l-20 33h14l-31 43-117-1 10-16-127 17-199-2 17-43 13-1s-4-35 38-47 145-35 162-39c18-4 34-18 34-18a41 41 0 0137 19c17-3 39-20 39-20z" fill="#eae7dd" style="mix-blend-mode:multiply"/><path stroke="#000" stroke-miterlimit="10" stroke-width="3" d="M1283 1335l-80-152 19 4 64 121 47-61 92 94-11 8-80-82-51 68z"/><path stroke="#000" stroke-miterlimit="10" stroke-width="3" d="M1213 1204l-14 8-2-54 42 33-13 7"/><path d="M80 804v308h24c95 0 148 58 204 119" fill="none" stroke="#fbf8ed" stroke-miterlimit="10" stroke-width="3"/></g></svg>